<?xml version="1.0" standalone="no"?>
<!DOCTYPE svg PUBLIC "-//W3C//DTD SVG 20010904//EN"
 "http://www.w3.org/TR/2001/REC-SVG-20010904/DTD/svg10.dtd">
<svg version="1.0" xmlns="http://www.w3.org/2000/svg"
 width="1024.000000pt" height="1024.000000pt" viewBox="0 0 1024.000000 1024.000000"
 preserveAspectRatio="xMidYMid meet">

<g transform="translate(0.000000,1024.000000) scale(0.100000,-0.100000)"
fill="#000000" stroke="none">
<path d="M5139 9176 c-49 -17 -92 -49 -127 -94 -30 -38 -62 -116 -62 -152 0
-13 -7 -20 -20 -20 -38 0 -116 -33 -157 -66 -92 -75 -124 -225 -70 -330 44
-86 137 -153 213 -154 30 0 32 -3 39 -47 12 -79 44 -129 117 -186 93 -70 212
-71 315 -2 60 40 91 87 113 169 l15 61 46 6 c102 15 184 90 215 197 30 101 2
194 -80 276 -41 42 -114 76 -161 76 -18 0 -24 9 -34 54 -14 62 -60 137 -105
170 -72 53 -178 71 -257 42z m149 -189 c69 -34 67 -163 -3 -195 -49 -23 -94
-15 -131 22 -27 27 -34 42 -34 73 0 95 81 143 168 100z m268 -258 c30 -15 54
-61 54 -104 0 -63 -72 -117 -136 -101 -44 11 -84 59 -84 101 0 62 28 98 90
118 17 6 46 0 76 -14z m-523 -10 c15 -11 31 -38 37 -59 27 -101 -77 -175 -168
-120 -62 38 -70 114 -18 166 29 29 41 34 79 34 30 0 53 -7 70 -21z m250 -250
c32 -15 57 -60 57 -104 0 -55 -52 -105 -110 -105 -34 0 -48 6 -76 34 -88 88
14 227 129 175z"/>
<path d="M4637 7994 c-117 -18 -305 -82 -430 -146 -503 -258 -913 -725 -1115
-1268 -113 -304 -169 -654 -144 -905 5 -49 8 -92 6 -94 -1 -1 -38 -9 -81 -17
-240 -41 -465 -268 -533 -539 -28 -110 -35 -269 -17 -370 68 -369 370 -650
697 -648 l86 1 22 -89 c84 -343 370 -795 644 -1017 l63 -51 -3 -486 -2 -485
-818 3 c-449 2 -834 0 -856 -4 -83 -15 -128 -85 -107 -167 13 -50 35 -76 74
-91 19 -8 303 -11 885 -11 794 0 993 -4 1397 -30 83 -5 309 -15 503 -21 393
-13 932 -1 1277 27 149 13 404 18 1172 23 l982 6 31 30 c79 76 44 211 -61 234
-19 4 -400 6 -846 4 l-813 -3 0 474 0 475 73 38 c50 26 97 63 157 123 106 105
164 211 182 333 7 43 17 77 24 77 23 0 152 101 202 157 89 103 161 262 180
400 l7 48 100 6 c171 10 312 74 446 200 198 187 288 485 231 759 -44 215 -147
381 -306 495 -63 45 -185 105 -213 105 -10 0 -13 5 -8 18 4 9 13 49 22 87 19
88 13 303 -11 390 -26 95 -80 196 -144 266 -48 53 -60 74 -71 120 -37 172
-171 351 -331 445 -41 24 -83 44 -92 44 -16 0 -18 10 -18 88 -1 274 -232 547
-527 620 -63 16 -80 25 -130 73 -126 120 -318 224 -490 265 -93 22 -300 30
-390 15 -82 -14 -176 -56 -249 -111 l-51 -39 -29 30 c-38 40 -174 106 -243
119 -73 14 -227 11 -334 -6z m292 -280 c63 -21 125 -81 146 -142 11 -34 15
-88 15 -209 l0 -163 -255 0 c-294 0 -331 -7 -441 -86 -75 -53 -114 -100 -157
-191 -30 -63 -32 -76 -35 -194 l-4 -126 -36 -13 c-100 -35 -211 -142 -258
-246 -72 -162 -51 -342 56 -485 44 -59 136 -135 183 -152 15 -6 17 -21 17
-121 l0 -114 -73 -34 c-149 -71 -251 -203 -277 -359 -42 -245 137 -485 394
-530 139 -24 306 31 402 133 68 72 100 130 125 224 33 128 10 252 -69 372 -34
52 -124 134 -169 155 -22 10 -23 16 -23 126 l1 116 77 37 c145 69 247 205 274
366 37 222 -105 453 -325 526 -17 5 -19 16 -15 99 3 81 6 99 30 134 16 24 44
49 70 62 41 20 60 21 276 21 l232 0 0 -2011 c0 -1458 -3 -2022 -11 -2055 -17
-66 -87 -140 -152 -159 -200 -59 -535 69 -857 328 -368 296 -619 698 -704
1129 -13 64 -32 132 -43 150 -54 93 -167 104 -242 24 -30 -32 -73 -34 -163 -6
-118 36 -234 156 -288 297 -16 42 -24 87 -27 163 -8 162 28 274 121 377 62 68
122 107 201 128 65 18 66 18 134 -5 61 -21 74 -22 110 -12 80 24 121 125 92
227 -6 22 -16 104 -23 183 -31 379 70 783 283 1141 165 275 420 535 681 694
289 177 564 253 727 201z m913 0 c95 -22 194 -64 265 -112 69 -48 99 -78 146
-154 20 -31 46 -62 59 -70 13 -7 60 -13 113 -13 78 -1 98 -5 149 -30 129 -64
205 -166 214 -284 7 -104 -17 -149 -145 -271 -178 -170 -185 -175 -257 -172
-215 9 -427 -132 -504 -336 -24 -63 -26 -82 -31 -303 -8 -320 2 -309 -291
-309 l-190 0 0 395 0 395 168 0 c93 0 195 5 227 11 173 32 320 174 355 343 7
34 10 151 8 319 -3 250 -4 267 -24 293 -53 72 -138 91 -201 46 -57 -40 -63
-75 -63 -349 0 -232 -1 -249 -21 -291 -37 -76 -56 -82 -266 -82 l-183 0 0 393
0 393 26 52 c29 59 83 106 152 133 60 23 197 25 294 3z m1186 -1066 c115 -57
203 -188 223 -333 14 -100 28 -127 89 -168 62 -42 87 -73 110 -140 54 -157 20
-369 -76 -462 -52 -51 -66 -77 -66 -130 -1 -52 26 -102 72 -132 41 -29 78 -29
141 -2 38 17 60 20 97 15 102 -14 215 -94 284 -200 56 -86 78 -168 78 -285 0
-164 -43 -273 -150 -380 -76 -76 -157 -120 -236 -128 -51 -5 -56 -4 -93 30
-92 83 -206 65 -261 -42 -6 -13 -16 -69 -21 -124 -10 -113 -39 -237 -74 -315
-31 -68 -124 -165 -189 -197 -28 -14 -79 -28 -113 -31 l-63 -7 -1 89 c-1 221
-33 326 -129 428 -211 223 -610 175 -752 -90 -47 -88 -58 -151 -58 -341 l0
-173 -212 -1 c-117 0 -223 -2 -235 -3 l-23 -3 0 394 0 393 163 1 c89 0 197 4
239 8 144 15 252 90 315 219 l38 76 5 171 c5 169 5 172 34 213 19 27 47 51 82
68 49 24 63 26 139 22 74 -4 91 -8 128 -34 23 -16 58 -54 78 -84 l36 -53 -22
-52 c-74 -166 -45 -333 80 -461 123 -126 303 -156 464 -77 143 69 246 251 225
397 -22 155 -98 262 -235 333 -50 26 -63 28 -165 28 l-111 0 -29 49 c-60 99
-182 189 -300 221 -77 21 -240 21 -318 0 -188 -50 -334 -202 -365 -380 -6 -33
-10 -110 -9 -172 1 -91 -2 -117 -17 -140 -39 -62 -42 -63 -257 -63 l-198 0 0
389 0 389 233 4 233 3 76 38 c93 46 166 121 199 205 20 51 23 81 28 297 7 258
9 268 65 328 46 50 99 67 212 67 92 0 106 3 160 30 66 33 270 203 330 274 21
25 47 46 58 46 10 0 39 -10 64 -22z m-2592 -309 c140 -67 167 -265 48 -355
-94 -72 -215 -62 -296 23 -29 31 -58 100 -58 141 0 152 169 258 306 191z m-59
-1155 c126 -73 138 -250 23 -333 -104 -75 -249 -40 -305 73 -60 120 -2 243
135 287 38 12 100 1 147 -27z m2672 -371 c100 -75 89 -211 -20 -257 -113 -46
-226 49 -199 167 22 98 142 147 219 90z m-651 -840 c18 -9 46 -34 60 -56 27
-40 27 -43 32 -258 5 -200 7 -220 26 -245 44 -59 67 -69 170 -69 89 0 93 -1
87 -20 -22 -69 -125 -173 -217 -218 -43 -21 -79 -30 -135 -34 -42 -3 -86 -12
-99 -20 -12 -7 -36 -43 -53 -79 -55 -116 -168 -197 -359 -260 -73 -23 -102
-27 -205 -28 -112 -1 -124 1 -177 27 -34 17 -72 46 -93 71 -57 69 -65 107 -65
292 l0 164 235 0 235 0 0 -108 c0 -92 3 -114 23 -152 52 -104 180 -104 242 1
19 32 20 53 21 460 2 460 1 455 57 507 55 52 138 61 215 25z m-2088 -1445
c203 -96 340 -132 510 -132 83 0 132 5 174 18 82 24 169 70 216 112 43 39 40
39 109 -14 111 -84 214 -116 376 -116 203 -1 406 61 593 180 29 19 57 34 62
34 12 0 14 -730 3 -730 -5 -1 -89 -8 -188 -16 -286 -24 -1282 -30 -1645 -10
-157 9 -311 19 -342 23 l-58 6 0 374 0 373 53 -31 c28 -17 90 -49 137 -71z"/>
<path d="M4454 4300 c-74 -29 -132 -84 -165 -154 -24 -51 -29 -74 -29 -137 0
-65 5 -85 31 -137 96 -192 344 -231 495 -78 61 62 84 122 84 216 0 88 -22 149
-76 209 -81 90 -229 125 -340 81z m159 -164 c18 -7 43 -26 57 -41 21 -22 25
-37 25 -85 0 -54 -3 -62 -34 -94 -60 -62 -129 -61 -193 3 -31 32 -38 46 -38
79 0 112 88 179 183 138z"/>
<path d="M6739 6382 c-79 -21 -150 -65 -217 -136 -91 -96 -126 -193 -120 -335
3 -85 8 -106 36 -163 141 -286 498 -362 729 -154 273 246 163 698 -192 791
-76 19 -153 18 -236 -3z m206 -274 c31 -16 75 -60 92 -92 8 -15 15 -52 15 -81
1 -128 -115 -219 -237 -185 -182 51 -195 301 -18 366 40 15 111 11 148 -8z"/>
<path d="M2143 3536 c-59 -19 -104 -49 -153 -102 -68 -74 -85 -122 -85 -239 0
-86 3 -107 24 -147 55 -108 131 -168 247 -194 123 -27 240 5 329 91 69 67 98
134 103 235 5 109 -17 173 -88 252 -72 81 -138 111 -249 115 -53 2 -102 -2
-128 -11z m174 -236 c44 -27 67 -73 60 -124 -17 -123 -197 -132 -237 -12 -23
71 39 156 114 156 17 0 45 -9 63 -20z"/>
<path d="M8122 3532 c-98 -35 -186 -129 -217 -232 -26 -85 -17 -189 21 -261
68 -128 174 -191 319 -192 66 -1 90 4 137 25 79 36 142 98 181 177 28 58 32
75 32 151 0 92 -11 128 -57 198 -40 59 -64 79 -133 115 -78 40 -200 48 -283
19z m186 -232 c81 -49 75 -176 -9 -211 -97 -40 -189 26 -176 125 8 56 61 106
114 106 21 0 53 -9 71 -20z"/>
<path d="M2374 1406 c-95 -42 -110 -176 -25 -233 29 -19 47 -23 118 -23 50 0
97 6 118 14 104 44 96 196 -12 242 -41 18 -158 17 -199 0z"/>
<path d="M2963 1404 c-45 -22 -77 -90 -68 -144 10 -61 50 -97 116 -105 30 -3
1031 -5 2224 -3 2431 4 2213 -4 2249 77 22 47 16 96 -15 135 -47 60 123 56
-2276 56 -1985 0 -2201 -2 -2230 -16z"/>
<path d="M7811 1402 c-52 -26 -76 -65 -75 -122 1 -100 55 -135 199 -128 74 3
97 8 122 26 80 57 61 189 -33 228 -48 20 -171 18 -213 -4z"/>
</g>
</svg>
